<?xml version="1.0" encoding="UTF-8" standalone="no"?>
<!-- Bird emblem (white) extracted from Singapore_Airlines_Logo.svg -->
<svg xmlns="http://www.w3.org/2000/svg" viewBox="0 0 468.03644 47.714725" version="1.1">
  <g transform="translate(232.01649,-142.68984)">
    <g transform="translate(-0.85989583,36.314062)">
      <path
         d="m -51.237562,137.20842 c -0.727604,-0.13675 -2.298957,-0.71913 -3.491897,-1.29419 -7.430159,-3.5817 -10.221368,-12.31854 -6.371786,-19.94451 1.022694,-2.02595 3.789529,-4.78639 5.916483,-5.90281 5.507056,-2.89061 12.196636,-2.01883 16.732478,2.18056 3.121258,2.88974 4.605197,6.23797 4.632381,10.45211 0.01087,1.68518 -0.139399,3.03671 -0.455965,4.10104 -2.209699,7.42921 -9.384736,11.83186 -16.961694,10.4078 z m 6.916788,-6.30554 c 5.658075,-2.78546 6.725129,-10.13583 2.105655,-14.50474 -3.488738,-3.2995 -8.880597,-3.27375 -12.202335,0.0583 -2.050302,2.05665 -2.640942,3.48251 -2.640942,6.37546 0,2.02286 0.105445,2.60615 0.700607,3.87561 2.169853,4.62818 7.43222,6.46233 12.037015,4.1954 z"
         style="fill:#ffffff;fill-opacity:1;stroke-width:0.26458335" />
    </g>
  </g>
</svg>
